# AST/ASF file generated using VICON BodyLanguage
# -----------------------------------------------
:version 1.10
:name VICON
:units
  mass 1.0
  length 0.45
  angle deg
:documentation
   .ast/.asf automatically generated from VICON data using
   VICON BodyBuilder and BodyLanguage model FoxedUp or BRILLIANT.MOD
:root
   order TX TY TZ RX RY RZ
   axis XYZ
   position 0 0 0  
   orientation 0 0 0 
:bonedata
  begin
     id 1 
     name lhipjoint
     direction 0.646657 -0.683706 0.338203 
     length 2.4948 
     axis 0 0 0  XYZ
  end
  begin
     id 2 
     name lfemur
     direction 0.34202 -0.939693 0  
     length 6.79491  
     axis 0 0 20  XYZ
    dof rx ry rz
    limits (-160.0 20.0)
           (-70.0 70.0)
           (-60.0 70.0)
  end
  begin
     id 3 
     name ltibia
     direction 0.34202 -0.939693 0   
     length 7.56807   
     axis 0 0 20   XYZ
    dof rx
    limits (-10.0 170.0)
  end
  begin
     id 4 
     name lfoot
     direction 0.0679796 -0.186772 0.980048   
     length 2.53018   
     axis -90 7.62852e-016 20   XYZ
    dof rx rz
    limits (-45.0 90.0)
           (-70.0 20.0)
  end
  begin
     id 5 
     name ltoes
     direction 1.53625e-011 -4.21881e-011 1   
     length 1.26912   
     axis -90 7.62852e-016 20   XYZ
    dof rx
    limits (-90.0 20.0)
  end
  begin
     id 6 
     name rhipjoint
     direction -0.618868 -0.704065 0.348274   
     length 2.42265  
     axis 0 0 0  XYZ 
  end
  begin
     id 7 
     name rfemur
     direction -0.34202 -0.939693 0   
     length 6.73814   
     axis 0 0 -20   XYZ
    dof rx ry rz
    limits (-160.0 20.0)
           (-70.0 70.0)
           (-70.0 60.0)
  end
  begin
     id 8 
     name rtibia
     direction -0.34202 -0.939693 0   
     length 7.66799   
     axis 0 0 -20   XYZ
    dof rx
    limits (-10.0 170.0)
 end
 begin
     id 9 
     name rfoot
     direction -0.0727352 -0.199838 0.977125   
     length 2.57224  
     axis -90 -7.62852e-016 -20   XYZ
    dof rx rz
    limits (-45.0 90.0)
           (-20.0 70.0)
  end
  begin
     id 10 
     name rtoes
     direction -1.53501e-011 -4.21858e-011 1   
     length 1.28858   
     axis -90 -7.62852e-016 -20   XYZ
    dof rx
    limits (-90.0 20.0)
  end
  begin
     id 11 
     name lowerback
     direction -0.0172471 0.995767 -0.0902851   
     length 2.20206   
     axis 0 0 0   XYZ
    dof rx ry rz
    limits (-20.0 45.0)
           (-30.0 30.0)
           (-30.0 30.0)
  end
  begin
     id 12 
     name upperback
     direction -0.000110737 0.999714 0.0239043   
     length 2.19523   
     axis 0 0 0   XYZ
    dof rx ry rz
    limits (-20.0 45.0)
           (-30.0 30.0)
           (-30.0 30.0)
  end
  begin
     id 13 
     name thorax
     direction 0.00704869 0.997783 0.0661741   
     length 2.21977   
     axis 0 0 0   XYZ
    dof rx ry rz
    limits (-20.0 45.0)
           (-30.0 30.0)
           (-30.0 30.0)
  end
  begin
     id 14 
     name lowerneck
     direction -0.00407501 0.995527 0.0943846   
     length 1.83142   
     axis 0 0 0   XYZ
    dof rx ry rz
    limits (-20.0 45.0)
           (-30.0 30.0)
           (-30.0 30.0)
  end
  begin
     id 15 
     name upperneck
     direction 0.0640586 0.986486 -0.150807   
     length 1.84616   
     axis 0 0 0   XYZ
    dof rx ry rz
    limits (-20.0 45.0)
           (-30.0 30.0)
           (-30.0 30.0)
  end
  begin
     id 16
     name head
     direction 0.0188017 0.99791 -0.0618239  
     length 1.85932  
     axis 0 0 0   XYZ
    dof rx ry rz
    limits (-20.0 45.0)
           (-30.0 30.0)
           (-30.0 30.0)
  end
  begin
     id 17 
     name lclavicle
     direction 0.976074 0.206905 0.066852  
     length 3.81043  
     axis 0 0 0   XYZ
    dof ry rz
    limits (-20.0 10.0)
           (0.0 20.0)
  end
  begin
     id 18 
     name lhumerus
     direction 1 -4.48971e-011 1.86916e-027   
     length 5.37587   
     axis 180 -30 -90   XYZ
    dof rx ry rz
    limits (-60.0 90.0)
           (-90.0 90.0)
           (-90.0 90.0)
  end
  begin
     id 19
     name lradius
     direction 1 -4.48968e-011 1.69187e-027   
     length 3.35977   
     axis 180 -30 -90   XYZ
    dof rx
    limits (-10.0 170.0)
  end
  begin
     id 20
     name lwrist
     direction 1 -4.48968e-011 5.8978e-027   
     length 1.67988   
     axis -3.27506e-015 90 90   XYZ
    dof ry
    limits (-180.0 0.0)
 end
  begin
     id 21 
     name lhand
     direction 1 -4.49028e-011 1.18071e-026   
     length 0.561859   
     axis -7.52654e-015 90 90   XYZ
    dof rx rz
    limits (-90.0 90.0)
           (-45.0 45.0)
  end
  begin
     id 22 
     name lfingers
     direction 1 -4.48927e-011 2.35758e-026   
     length 0.452985   
     axis -1.50534e-014 90 90   XYZ
    dof rx
    limits (0.0 90.0)
  end
  begin
     id 23
     name lthumb
     direction 0.707107 -6.34898e-011 0.707107   
     length 0.650399   
     axis -90 45 5.69224e-014   XYZ
    dof rx rz
    limits (-45.0 45.0)
           (-45.0 45.0)
  end
  begin
     id 24 
     name rclavicle
     direction -0.988403 0.151789 0.00439714   
     length 3.6942  
     axis 0 0 0   XYZ 
    dof ry rz
    limits (-10.0 20.0)
           (-20.0 0.0)
  end
  begin
     id 25 
     name rhumerus
     direction -1 -4.48978e-011 1.62495e-027  
     length 5.22819   
     axis 180 30 90   XYZ
    dof rx ry rz
    limits (-90.0 60.0)
           (-90.0 90.0)
           (-90.0 90.0)
  end
  begin
     id 26 
     name rradius
     direction -1 -4.48961e-011 3.47796e-027   
     length 3.40764   
     axis 180 30 90   XYZ
    dof rx
    limits (-10.0 170.0)
  end
  begin
     id 27 
     name rwrist
     direction -1 -4.48949e-011 5.89602e-027   
     length 1.70382   
     axis -3.27506e-015 -90 -90   XYZ
    dof ry
    limits (-180.0 0.0)
  end
  begin
     id 28
     name rhand
     direction -1 -4.48977e-011 1.17973e-026   
     length 0.583255   
     axis -7.52654e-015 -90 -90   XYZ
    dof rx rz
    limits (-90.0 90.0)
           (-45.0 45.0)
  end
  begin
     id 29
     name rfingers
     direction -1 -4.49099e-011 2.36408e-026   
     length 0.470235   
     axis -1.50534e-014 -90 -90   XYZ
    dof rx
    limits (0.0 90.0)
  end
  begin
     id 30
     name rthumb
     direction -0.707107 -6.35011e-011 0.707107   
     length 0.675167   
     axis -90 -45 -5.69224e-014   XYZ
    dof rx rz
    limits (-45.0 45.0)
           (-45.0 45.0)
  end
:hierarchy
  begin
    root lhipjoint rhipjoint lowerback
    lhipjoint lfemur
    lfemur ltibia
    ltibia lfoot
    lfoot ltoes
    rhipjoint rfemur
    rfemur rtibia
    rtibia rfoot
    rfoot rtoes
    lowerback upperback
    upperback thorax
    thorax lowerneck lclavicle rclavicle
    lowerneck upperneck
    upperneck head
    lclavicle lhumerus
    lhumerus lradius
    lradius lwrist
    lwrist lhand lthumb
    lhand lfingers
    rclavicle rhumerus
    rhumerus rradius
    rradius rwrist
    rwrist rhand rthumb
    rhand rfingers
  end

#!OML:ASF G:\JayActor3\Patient Classification 1\Patient 1\Session 2\male.ASF
:FULLY-SPECIFIED
:DEGREES
1176
root -23.2141 16.7009 -6.88906 -14.4091 -80.2151 21.4269
lowerback 5.87156 -1.92844 -1.01031
upperback 0.972268 -2.63113 0.59898
thorax -2.21379 -1.30911 1.3829
lowerneck -13.8121 1.48063 0.796925
upperneck -6.71163 1.54242 3.55068
head 0.158833 0.64504 1.0368
rclavicle 2.60408e-014 -1.59028e-015
rhumerus -50.2874 7.92368 -86.8635
rradius 45.5119
rwrist -9.70867
rhand -23.5126 2.77884
rfingers 7.12502
rthumb 2.94802 -27.1805
lclavicle 2.60408e-014 -1.59028e-015
lhumerus -38.2584 -25.3107 102.102
lradius 61.0384
lwrist 12.0036
lhand -12.6219 16.2642
lfingers 7.12502
lthumb 13.4576 45.8094
rfemur -31.571 2.25256 17.8628
rtibia 45.5354
rfoot -18.6176 -7.63835
rtoes 24.2498
lfemur 8.14562 4.68945 -18.3632
ltibia 25.7814
lfoot -3.26657 -3.11889
ltoes -12.9598
1177
root -23.2995 16.6934 -6.90186 -14.1271 -80.0703 21.1523
lowerback 5.96473 -1.91246 -0.902424
upperback 1.04511 -2.60343 0.664094
thorax -2.19342 -1.29704 1.38934
lowerneck -13.8613 1.47072 0.830317
upperneck -6.13851 1.5278 3.57265
head 0.351297 0.656791 1.042
rclavicle 2.127e-014 5.96354e-015
rhumerus -50.1298 7.92823 -86.9055
rradius 45.6086
rwrist -9.71517
rhand -23.5177 2.80564
rfingers 7.12502
rthumb 2.94316 -27.1538
lclavicle 2.127e-014 5.96354e-015
lhumerus -38.3781 -24.8599 101.924
lradius 60.1846
lwrist 12.0591
lhand -12.9349 16.3911
lfingers 7.12502
lthumb 13.156 45.9561
rfemur -31.3145 2.28678 17.9844
rtibia 45.714
rfoot -19.0166 -7.77174
rtoes 24.0668
lfemur 7.43881 4.70823 -18.111
ltibia 27.3915
lfoot -2.93865 -3.4249
ltoes -12.806
1178
root -23.3839 16.6843 -6.91432 -13.7462 -79.9252 20.7785
lowerback 6.04781 -1.89503 -0.776535
upperback 1.12018 -2.5725 0.732852
thorax -2.16577 -1.28355 1.38873
lowerneck -13.9407 1.4498 0.845269
upperneck -5.50933 1.49896 3.61142
head 0.56804 0.663696 1.05626
rclavicle 1.38155e-014 -3.18055e-015
rhumerus -49.9361 7.88211 -86.9115
rradius 45.6843
rwrist -9.71432
rhand -23.5398 2.8259
rfingers 7.12502
rthumb 2.92183 -27.1338
lclavicle 1.38155e-014 -3.18055e-015
lhumerus -38.4778 -24.3988 101.725
lradius 59.317
lwrist 12.083
lhand -13.2941 16.4798
lfingers 7.12502
lthumb 12.8097 46.0668
rfemur -31.0714 2.30007 18.1248
rtibia 45.9061
rfoot -19.4014 -7.88044
rtoes 23.9138
lfemur 6.6856 4.71856 -17.8428
ltibia 29.0648
lfoot -2.63692 -3.69561
ltoes -12.7657
1179
root -23.4672 16.6733 -6.92611 -13.3219 -79.7827 20.3542
lowerback 6.12479 -1.87806 -0.638531
upperback 1.19717 -2.54141 0.801816
thorax -2.1332 -1.27007 1.38121
lowerneck -14.0151 1.42048 0.866625
upperneck -4.85043 1.45697 3.64388
head 0.79528 0.664561 1.06745
rclavicle -3.43897e-014 1.35174e-014
rhumerus -49.7167 7.78705 -86.8875
rradius 45.7424
rwrist -9.70719
rhand -23.5734 2.83068
rfingers 7.12502
rthumb 2.8894 -27.1295
lclavicle -3.43897e-014 1.35174e-014
lhumerus -38.5745 -23.9273 101.51
lradius 58.4442
lwrist 12.1174
lhand -13.7421 16.5347
lfingers 7.12502
lthumb 12.3777 46.1483
rfemur -30.8348 2.29707 18.2752
rtibia 46.1117
rfoot -19.7745 -7.97077
rtoes 23.7443
lfemur 5.8998 4.7309 -17.5674
ltibia 30.7904
lfoot -2.3873 -3.91291
ltoes -12.8678
1180
root -23.5495 16.6609 -6.93735 -12.8613 -79.6428 19.8822
lowerback 6.19492 -1.85939 -0.489752
upperback 1.28125 -2.50751 0.871315
thorax -2.08994 -1.25536 1.36752
lowerneck -14.1014 1.37833 0.868539
upperneck -4.15181 1.3987 3.69502
head 1.03932 0.658933 1.088
rclavicle 2.98177e-015 7.95139e-016
rhumerus -49.4658 7.63574 -86.8314
rradius 45.7755
rwrist -9.69556
rhand -23.635 2.8407
rfingers 7.12502
rthumb 2.82983 -27.1203
lclavicle 2.98177e-015 7.95139e-016
lhumerus -38.6613 -23.4554 101.282
lradius 57.5632
lwrist 12.18
lhand -14.2628 16.563
lfingers 7.12502
lthumb 11.8757 46.2063
rfemur -30.5994 2.29327 18.435
rtibia 46.3299
rfoot -20.1442 -8.0594
rtoes 23.5441
lfemur 5.09261 4.74918 -17.2845
ltibia 32.5528
lfoot -2.218 -4.04745
ltoes -13.0597
1181
root -23.631 16.6472 -6.94806 -12.4018 -79.5045 19.3971
lowerback 6.26481 -1.84146 -0.339148
upperback 1.36627 -2.47458 0.939152
thorax -2.0456 -1.24109 1.35112
lowerneck -14.1638 1.3232 0.881905
upperneck -3.43073 1.32091 3.73609
head 1.28891 0.643587 1.10262
rclavicle -1.45113e-014 1.59028e-015
rhumerus -49.2021 7.43911 -86.7559
rradius 45.7867
rwrist -9.68824
rhand -23.7148 2.84999
rfingers 7.12502
rthumb 2.75281 -27.112
lclavicle -1.45113e-014 1.59028e-015
lhumerus -38.7592 -22.9788 101.042
lradius 56.6821
lwrist 12.2819
lhand -14.8387 16.5907
lfingers 7.12502
lthumb 11.3203 46.2652
rfemur -30.3589 2.2972 18.5981
rtibia 46.5567
rfoot -20.5232 -8.15686
rtoes 23.2963
lfemur 4.27093 4.78026 -17.001
ltibia 34.3357
lfoot -2.1766 -4.10618
ltoes -13.3017
1182
root -23.7115 16.6325 -6.95824 -11.9534 -79.364 18.9118
lowerback 6.3275 -1.82558 -0.191891
upperback 1.45434 -2.44478 1.00539
thorax -1.99385 -1.22836 1.33482
lowerneck -14.2089 1.25707 0.887329
upperneck -2.68388 1.22835 3.78559
head 1.54621 0.621544 1.12079
rclavicle 4.27387e-014 0
rhumerus -48.9201 7.19677 -86.6603
rradius 45.7727
rwrist -9.68372
rhand -23.8055 2.85818
rfingers 7.12502
rthumb 2.66524 -27.1049
lclavicle 4.27387e-014 0
lhumerus -38.8613 -22.5031 100.791
lradius 55.799
lwrist 12.4283
lhand -15.4388 16.6548
lfingers 7.12502
lthumb 10.7415 46.3602
rfemur -30.1125 2.31053 18.7618
rtibia 46.7869
rfoot -20.9128 -8.27658
rtoes 22.975
lfemur 3.43511 4.82229 -16.7232
ltibia 36.1224
lfoot -2.30624 -4.09506
ltoes -13.5551
1183
root -23.7911 16.6173 -6.96778 -11.5078 -79.2182 18.4166
lowerback 6.38822 -1.81183 -0.0454582
upperback 1.54337 -2.41801 1.07134
thorax -1.93983 -1.21707 1.31879
lowerneck -14.2327 1.18113 0.888687
upperneck -1.91314 1.12216 3.83436
head 1.80999 0.592966 1.13883
rclavicle 1.31198e-014 -7.15625e-015
rhumerus -48.6278 6.91353 -86.5444
rradius 45.7408
rwrist -9.68875
rhand -23.9073 2.87363
rfingers 7.12502
rthumb 2.56687 -27.0907
lclavicle 1.31198e-014 -7.15625e-015
lhumerus -38.9699 -22.0258 100.532
lradius 54.9172
lwrist 12.5972
lhand -16.0213 16.7759
lfingers 7.12502
lthumb 10.1796 46.5096
rfemur -29.8526 2.33086 18.9272
rtibia 47.0117
rfoot -21.3133 -8.41507
rtoes 22.6335
lfemur 2.58823 4.87433 -16.4522
ltibia 37.8966
lfoot -2.6516 -4.03501
ltoes -13.8524
1184
root -23.8699 16.6018 -6.97679 -11.0478 -79.0641 17.8967
lowerback 6.44466 -1.79916 0.101892
upperback 1.63501 -2.39282 1.13742
thorax -1.88065 -1.20654 1.30229
lowerneck -14.2465 1.09417 0.885924
upperneck -1.11775 0.999905 3.88436
head 2.08272 0.556636 1.15732
rclavicle 9.93923e-016 7.15625e-015
rhumerus -48.3119 6.59128 -86.4121
rradius 45.6795
rwrist -9.69989
rhand -24.0193 2.89129
rfingers 7.12502
rthumb 2.45871 -27.0743
lclavicle 9.93923e-016 7.15625e-015
lhumerus -39.0789 -21.557 100.266
lradius 54.0357
lwrist 12.7627
lhand -16.5751 16.9557
lfingers 7.12502
lthumb 9.64528 46.7149
rfemur -29.5775 2.35153 19.0995
rtibia 47.2238
rfoot -21.7153 -8.57889
rtoes 22.26
lfemur 1.72837 4.93782 -16.1834
ltibia 39.6417
lfoot -3.21077 -3.95423
ltoes -14.2112
1185
root -23.9481 16.5867 -6.98548 -10.5512 -78.9053 17.3303
lowerback 6.49897 -1.78398 0.255
upperback 1.72923 -2.36414 1.20573
thorax -1.81774 -1.19423 1.28445
lowerneck -14.2574 0.996066 0.873032
upperneck -0.300112 0.862 3.93485
head 2.36513 0.512604 1.17705
rclavicle -2.98177e-015 3.18055e-015
rhumerus -47.9861 6.23186 -86.2632
rradius 45.6086
rwrist -9.7182
rhand -24.1439 2.90718
rfingers 7.12502
rthumb 2.3384 -27.0597
lclavicle -2.98177e-015 3.18055e-015
lhumerus -39.1851 -21.1062 99.9963
lradius 53.1536
lwrist 12.9162
lhand -17.1068 17.1637
lfingers 7.12502
lthumb 9.13227 46.946
rfemur -29.2824 2.37535 19.2851
rtibia 47.4133
rfoot -22.1055 -8.76622
rtoes 21.9043
lfemur 0.85651 5.00293 -15.916
ltibia 41.341
lfoot -3.95777 -3.84776
ltoes -14.7393
1186
root -24.0257 16.5723 -6.99373 -9.99923 -78.74 16.7014
lowerback 6.55352 -1.76575 0.420725
upperback 1.82337 -2.3307 1.27687
thorax -1.7554 -1.17949 1.26209
lowerneck -14.2736 0.889389 0.84562
upperneck 0.543981 0.711759 3.99078
head 2.66043 0.462689 1.20073
rclavicle 2.3059e-014 -2.38542e-015
rhumerus -47.6411 5.83761 -86.0989
rradius 45.5158
rwrist -9.73066
rhand -24.2876 2.93239
rfingers 7.12502
rthumb 2.19958 -27.036
lclavicle 2.3059e-014 -2.38542e-015
lhumerus -39.2904 -20.6789 99.7302
lradius 52.2694
lwrist 13.0477
lhand -17.6253 17.3558
lfingers 7.12502
lthumb 8.63197 47.1593
rfemur -28.9676 2.38867 19.4883
rtibia 47.5744
rfoot -22.4672 -8.97387
rtoes 21.5422
lfemur -0.027576 5.06859 -15.6472
ltibia 42.9765
lfoot -4.84234 -3.69948
ltoes -15.5222
1187
root -24.1026 16.5587 -7.00167 -9.39328 -78.5686 16.0137
lowerback 6.60607 -1.74649 0.595628
upperback 1.91581 -2.29541 1.35119
thorax -1.69382 -1.16371 1.23768
lowerneck -14.2764 0.778901 0.834674
upperneck 1.39804 0.552524 4.02471
head 2.95965 0.407051 1.21354
rclavicle -3.99557e-014 -1.35174e-014
rhumerus -47.2872 5.42744 -85.9306
rradius 45.413
rwrist -9.73763
rhand -24.45 2.95358
rfingers 7.12502
rthumb 2.04279 -27.0164
lclavicle -3.99557e-014 -1.35174e-014
lhumerus -39.4002 -20.2723 99.4681
lradius 51.3855
lwrist 13.1672
lhand -18.1552 17.4939
lfingers 7.12502
lthumb 8.12056 47.3178
rfemur -28.6305 2.38786 19.7096
rtibia 47.7021
rfoot -22.7998 -9.18804
rtoes 21.1882
lfemur -0.922539 5.13914 -15.375
ltibia 44.5284
lfoot -5.80278 -3.49049
ltoes -16.4965
1188
root -24.1789 16.5467 -7.00943 -8.71427 -78.3867 15.2541
lowerback 6.65244 -1.72747 0.781611
upperback 2.00626 -2.25987 1.43007
thorax -1.63093 -1.1477 1.21157
lowerneck -14.201 0.662034 0.916433
upperneck 2.1902 0.377111 3.95562
head 3.22486 0.337437 1.17239
rclavicle -1.66979e-014 5.56597e-015
rhumerus -46.9239 5.00921 -85.7615
rradius 45.3026
rwrist -9.72847
rhand -24.6307 2.98709
rfingers 7.12502
rthumb 1.8682 -26.9845
lclavicle -1.66979e-014 5.56597e-015
lhumerus -39.5099 -19.8871 99.208
lradius 50.5038
lwrist 13.2703
lhand -18.6648 17.5794
lfingers 7.12502
lthumb 7.6287 47.4218
rfemur -28.2806 2.36983 19.9503
rtibia 47.7974
rfoot -23.0924 -9.39671
rtoes 20.8842
lfemur -1.82783 5.20463 -15.0996
ltibia 45.9745
lfoot -6.79017 -3.1761
ltoes -17.5995
1189
root -24.2545 16.5367 -7.01701 -8.01029 -78.1968 14.4738
lowerback 6.697 -1.71115 0.969359
upperback 2.08598 -2.22761 1.50879
thorax -1.57795 -1.13307 1.18475
lowerneck -14.1479 0.543341 0.952622
upperneck 3.03636 0.200134 3.93271
head 3.5158 0.269184 1.15492
rclavicle 2.08724e-014 -1.51076e-014
rhumerus -46.5732 4.60052 -85.6076
rradius 45.1956
rwrist -9.7032
rhand -24.8355 3.03152
rfingers 7.12502
rthumb 1.67046 -26.9417
lclavicle 2.08724e-014 -1.51076e-014
lhumerus -39.6403 -19.5112 98.9433
lradius 49.6336
lwrist 13.3489
lhand -19.1328 17.6133
lfingers 7.12502
lthumb 7.17698 47.4716
rfemur -27.924 2.33426 20.199
rtibia 47.8634
rfoot -23.3556 -9.57944
rtoes 20.607
lfemur -2.73779 5.27317 -14.8319
ltibia 47.2907
lfoot -7.76164 -2.75541
ltoes -18.6816
